<svg width="83" height="83" viewBox="0 0 83 83" fill="none" xmlns="http://www.w3.org/2000/svg">
<path d="M62.125 20.625C62.125 32.0159 52.8909 41.25 41.5 41.25C30.1091 41.25 20.875 32.0159 20.875 20.625C20.875 9.23413 30.1091 0 41.5 0C52.8909 0 62.125 9.23413 62.125 20.625Z" fill="#576F66"/>
<path d="M82.75 41.25C82.75 52.6409 73.5159 61.875 62.125 61.875C50.7341 61.875 41.5 52.6409 41.5 41.25C41.5 29.8591 50.7341 20.625 62.125 20.625C73.5159 20.625 82.75 29.8591 82.75 41.25Z" fill="#576F66"/>
<path d="M62.125 61.875C62.125 73.2659 52.8909 82.5 41.5 82.5C30.1091 82.5 20.875 73.2659 20.875 61.875C20.875 50.4841 30.1091 41.25 41.5 41.25C52.8909 41.25 62.125 50.4841 62.125 61.875Z" fill="#576F66"/>
<path d="M41.5 41.25C41.5 52.6409 32.2659 61.875 20.875 61.875C9.48413 61.875 0.25 52.6409 0.25 41.25C0.25 29.8591 9.48413 20.625 20.875 20.625C32.2659 20.625 41.5 29.8591 41.5 41.25Z" fill="#576F66"/>
</svg>
